<?xml version="1.0" standalone="no"?>
<!DOCTYPE svg PUBLIC "-//W3C//DTD SVG 20010904//EN"
 "http://www.w3.org/TR/2001/REC-SVG-20010904/DTD/svg10.dtd">
<svg version="1.0" xmlns="http://www.w3.org/2000/svg"
 width="1254.000000pt" height="1254.000000pt" viewBox="0 0 1254.000000 1254.000000"
 preserveAspectRatio="xMidYMid meet">

<g transform="translate(0.000000,1254.000000) scale(0.100000,-0.100000)"
fill="#FFFFFF" stroke="none">
<path d="M4475 11493 c-203 -79 -335 -152 -398 -222 -19 -21 -44 -64 -56 -95
-20 -53 -21 -69 -15 -249 4 -106 11 -197 16 -204 10 -12 -29 -46 -44 -37 -13
8 -10 -14 6 -45 8 -15 48 -51 89 -79 41 -28 78 -59 81 -69 10 -25 30 -1171 22
-1215 -10 -55 -38 -82 -116 -112 -39 -16 -69 -30 -67 -32 2 -3 25 5 51 16 60
25 66 25 63 -2 -1 -18 6 -25 33 -35 28 -9 30 -12 12 -12 -13 -1 -20 -5 -17
-11 3 -5 2 -10 -4 -10 -5 0 -30 -17 -55 -37 -64 -54 -89 -71 -198 -135 -201
-116 -301 -201 -413 -350 -162 -214 -247 -458 -276 -788 -6 -75 -17 -139 -23
-143 -6 -5 57 -6 139 -3 83 3 231 8 330 11 99 3 225 8 280 11 198 10 633 24
760 24 96 1 125 3 112 11 -10 6 -24 8 -31 6 -7 -3 -19 -1 -26 3 -11 7 -12 14
-2 35 7 15 8 24 2 20 -5 -3 -11 1 -11 9 -1 9 -2 22 -3 29 -1 6 3 16 9 20 6 6
4 7 -5 4 -9 -3 -25 2 -35 10 -19 15 -19 15 3 8 23 -7 23 -6 6 14 -10 11 -22
17 -27 14 -5 -3 -4 5 3 17 7 13 8 20 1 16 -5 -4 -15 3 -21 14 -10 19 -7 24 13
21 5 -1 6 3 2 9 -3 6 -11 8 -16 5 -8 -5 -14 23 -10 47 0 4 -5 5 -13 2 -22 -8
-39 21 -26 45 7 14 7 21 0 21 -5 0 -10 -5 -10 -12 0 -6 -9 -1 -19 11 -13 15
-19 33 -16 53 5 37 15 50 15 18 0 -13 3 -20 7 -16 10 10 4 88 -9 103 -7 9 -7
18 3 30 8 10 9 14 2 10 -6 -4 -14 -3 -18 3 -3 5 -1 10 5 10 6 0 9 4 6 9 -4 5
-1 11 5 13 6 2 1 16 -13 33 -12 16 -16 25 -9 20 11 -6 13 -4 8 8 -4 12 -1 17
11 17 13 0 14 2 3 9 -9 6 -10 11 -2 15 6 4 11 13 11 19 0 7 -4 6 -10 -3 -7
-11 -10 -11 -10 -2 0 7 10 16 22 21 14 5 17 10 10 15 -18 11 -14 26 5 19 13
-5 15 -2 10 11 -4 10 -1 27 5 39 7 12 11 25 10 30 -1 4 3 7 9 7 5 0 7 5 4 10
-3 6 1 10 9 10 15 0 21 12 17 33 -1 5 3 6 9 2 5 -3 10 2 10 12 0 14 2 15 9 4
7 -11 9 -11 14 0 4 10 6 10 6 2 1 -7 6 -13 13 -13 6 0 4 7 -5 18 -16 18 -15
19 10 33 38 19 63 41 57 50 -2 4 6 5 18 2 17 -3 19 -2 9 5 -14 10 -7 32 10 32
6 0 17 7 25 15 9 8 12 15 8 15 -3 0 -1 7 6 15 7 9 19 14 25 11 7 -2 18 0 26 6
11 8 11 9 -3 4 -12 -3 -15 -1 -12 9 3 8 12 11 19 8 13 -4 23 1 60 35 8 7 20
10 26 6 8 -4 9 -3 5 4 -4 7 -1 12 8 12 8 0 17 6 19 13 4 9 8 8 16 -3 9 -13 11
-13 11 0 0 9 10 16 22 17 13 1 24 7 26 12 2 6 21 15 43 21 21 6 38 16 36 22
-1 7 7 13 18 15 35 7 75 25 70 32 -2 4 2 8 10 8 8 0 11 -5 8 -10 -4 -6 -1 -7
8 -1 8 4 20 9 28 11 8 1 18 7 22 15 4 7 11 9 15 5 4 -4 14 -1 23 7 18 15 83
38 121 42 13 2 26 7 28 12 1 5 22 7 46 6 24 -1 55 4 70 11 14 8 26 11 26 8 0
-3 6 0 13 6 8 6 36 11 63 12 27 1 55 6 61 11 7 6 34 12 60 15 96 9 118 12 121
13 3 4 20 7 37 9 8 0 15 6 15 11 0 7 -6 7 -20 0 -14 -7 -20 -7 -20 0 0 5 0 13
0 18 0 4 8 7 18 7 9 1 26 6 38 12 31 18 67 24 209 34 149 12 399 13 465 3 25
-4 48 -7 53 -6 4 1 7 -1 7 -5 0 -5 25 -8 55 -9 30 0 55 2 55 6 0 10 39 10 45
-1 4 -5 13 -5 25 1 10 5 56 7 107 4 48 -3 106 -5 128 -5 22 0 47 -3 55 -6 8
-3 37 -7 63 -9 27 -1 56 -6 65 -10 10 -4 29 -8 43 -9 14 -1 38 -5 52 -9 19 -4
27 -2 27 6 0 8 3 9 8 3 4 -5 18 -11 32 -13 25 -2 60 -9 70 -12 13 -5 82 -2 87
3 3 4 15 1 26 -5 35 -19 154 -8 142 13 -3 4 15 -1 41 -13 33 -14 90 -24 193
-34 80 -7 196 -19 256 -26 108 -13 109 -13 55 -19 -42 -5 -33 -6 41 -5 106 1
136 13 119 47 -10 17 -8 17 26 3 20 -8 38 -13 41 -11 2 3 -19 13 -48 23 -88
32 -89 36 -89 329 0 241 13 677 26 895 l6 105 78 77 c120 117 114 103 118 312
4 200 -5 275 -46 350 -25 46 -96 118 -137 138 -11 5 -4 -3 15 -18 87 -70 130
-134 146 -218 l7 -39 -42 33 c-23 19 -50 53 -60 76 -26 58 -47 69 -103 54 -24
-8 -54 -2 -149 30 -118 40 -159 49 -129 30 11 -7 11 -10 2 -10 -7 0 -10 -5 -7
-10 4 -6 1 -9 -7 -8 -8 2 -12 -5 -11 -17 1 -10 -7 -31 -18 -46 -10 -15 -19
-44 -19 -64 0 -20 -4 -34 -9 -31 -10 6 -8 -60 2 -70 3 -3 1 -19 -3 -35 -6 -19
-5 -27 1 -23 13 8 7 -69 -6 -78 -6 -5 -5 -8 3 -8 8 0 10 -5 6 -12 -12 -18 -12
-47 -1 -45 5 1 12 -4 15 -12 2 -8 1 -11 -4 -8 -5 3 -8 -12 -6 -34 3 -28 0 -39
-9 -39 -11 0 -11 -3 1 -10 9 -6 11 -10 3 -10 -7 0 -10 -7 -6 -17 4 -9 2 -14
-3 -10 -6 3 -9 -9 -8 -31 1 -20 -3 -46 -9 -57 -9 -18 -9 -19 7 -6 15 12 16 12
10 -5 -4 -10 -12 -25 -18 -33 -8 -11 -8 -13 2 -7 14 9 14 9 3 -30 -6 -21 -5
-36 5 -49 7 -10 11 -23 7 -28 -3 -6 -7 -51 -9 -101 -1 -50 -6 -104 -10 -120
-5 -22 -4 -27 6 -21 9 6 10 3 2 -12 -6 -11 -8 -30 -5 -43 4 -14 2 -21 -4 -17
-7 4 -8 -7 -4 -31 8 -42 1 -207 -9 -207 -1 0 -3 -10 -4 -22 -1 -12 1 -20 6
-17 11 7 10 -3 -3 -28 -6 -11 -7 -18 -1 -15 11 7 9 -74 -3 -93 -5 -9 -4 -11 4
-6 8 5 10 0 7 -18 -3 -14 -8 -30 -11 -36 -4 -6 -2 -16 4 -23 6 -7 6 -18 1 -27
-4 -7 -4 -24 1 -37 6 -16 5 -32 -2 -45 -8 -15 -8 -19 0 -14 14 9 14 0 1 -25
-8 -14 -7 -19 1 -19 8 0 6 -6 -4 -18 -9 -10 -14 -30 -12 -47 1 -17 -2 -36 -7
-42 -7 -9 -7 -18 2 -28 6 -8 12 -40 13 -72 1 -32 7 -62 12 -66 6 -5 -28 -6
-75 -3 -75 6 -88 9 -107 32 l-23 25 -2 767 c-2 723 -3 813 -6 853 -3 28 -81
100 -135 124 -122 55 -556 118 -1005 146 -127 8 -329 10 -595 6 -397 -6 -495
-11 -775 -43 -79 -9 -146 -13 -149 -10 -3 3 18 8 47 12 29 4 46 10 39 14 -7 5
-9 18 -5 35 4 16 3 24 -3 21 -16 -10 -23 12 -11 36 10 21 10 21 -3 6 -8 -10
-17 -15 -20 -12 -3 3 3 16 14 27 20 21 20 22 -3 40 l-23 19 23 -5 c12 -3 20
-1 16 4 -3 5 -13 9 -24 9 -10 0 -27 15 -37 33 -19 31 -19 33 -2 34 12 1 16 -4
14 -18 -2 -12 4 -23 18 -30 18 -9 20 -9 10 2 -16 16 -17 33 -1 23 19 -12 -4
19 -26 36 -20 14 -20 14 4 21 l25 7 -27 1 c-29 1 -49 26 -40 50 6 16 -51 12
-265 -19 -185 -27 -345 -28 -398 -2 -22 11 -43 18 -47 15 -5 -2 -8 1 -8 6 0
14 -16 13 -65 -6z m778 -370 c-7 -2 -21 -2 -30 0 -10 3 -4 5 12 5 17 0 24 -2
18 -5z m1667 -112 c326 -28 632 -77 700 -111 46 -23 84 -68 100 -115 7 -22 12
-135 13 -317 l2 -282 -45 -14 c-113 -34 -378 -68 -745 -96 -27 -2 45 -2 160 0
116 2 204 1 196 -2 -11 -5 -11 -8 0 -15 9 -5 6 -9 -12 -13 -49 -11 -234 -26
-387 -32 l-157 -7 -24 27 -24 26 88 0 c49 0 86 2 84 4 -2 3 -49 7 -104 9
l-100 4 0 49 0 49 103 17 c106 19 161 39 163 61 0 6 0 61 0 121 -2 128 -7 139
-85 161 -66 18 -177 38 -183 32 -2 -3 26 -10 64 -17 101 -16 115 -32 23 -25
l-75 7 1 -97 0 -97 -59 6 c-33 3 -171 7 -306 7 -135 1 -228 5 -206 8 39 6 40
7 37 41 -2 19 -7 40 -12 45 -11 14 -8 79 5 87 5 4 -12 8 -39 8 -58 0 -53 14 9
29 l40 9 -35 1 c-55 1 -230 -26 -280 -44 -83 -29 -90 -42 -90 -170 0 -94 3
-114 18 -128 20 -18 111 -42 195 -52 l57 -6 0 -51 0 -51 -197 6 c-333 11 -645
44 -793 85 l-65 17 2 285 c2 173 7 297 14 317 15 46 54 90 100 113 73 38 498
98 834 120 176 11 849 5 1015 -9z m-2168 -932 c-2 -506 -6 -798 -13 -810 -33
-62 -34 -30 -32 748 3 764 6 853 37 853 8 0 10 -212 8 -791z m-555 209 c-3 -8
-6 -5 -6 6 -1 11 2 17 5 13 3 -3 4 -12 1 -19z m10 -248 c4 -124 8 -352 8 -507
0 -279 0 -282 -22 -303 -13 -11 -23 -26 -23 -32 0 -6 -3 -9 -6 -6 -3 4 2 20
10 37 14 26 16 95 16 537 0 279 2 505 4 503 2 -2 8 -105 13 -229z m2259 138
c3 -4 10 -25 14 -48 l7 -40 -113 0 -114 0 0 36 c0 19 4 33 8 30 5 -3 16 4 26
16 15 18 27 20 91 16 41 -2 77 -6 81 -10z m2031 -145 c-2 -21 -4 -6 -4 32 0
39 2 55 4 38 2 -18 2 -50 0 -70z m-1902 19 l30 -9 -27 -8 c-16 -4 -28 -12 -28
-19 -1 -35 -31 -216 -40 -241 -6 -15 -9 -34 -6 -42 4 -10 -27 -13 -167 -12
-95 1 -161 4 -147 6 14 3 30 9 35 15 7 8 6 9 -2 4 -6 -3 -14 -2 -18 4 -4 6
-11 8 -16 5 -17 -11 -22 24 -10 72 9 32 9 49 2 56 -6 6 -11 34 -11 62 0 69 -9
95 -31 95 -35 0 -20 19 19 23 63 8 385 -1 417 -11z m1902 -294 c-1 -46 -3 -11
-3 77 0 88 2 125 3 83 2 -42 2 -114 0 -160z m-2822 -43 c238 -9 295 -15 295
-30 0 -8 -25 -18 -71 -26 -100 -18 -112 -30 -117 -117 -4 -61 -7 -71 -26 -77
-19 -6 -326 -34 -383 -35 -22 0 -23 3 -23 85 0 94 13 137 52 173 29 26 74 42
103 37 11 -2 88 -6 170 -10z m1600 -15 c49 -30 67 -78 68 -176 0 -47 -3 -87
-6 -91 -7 -7 -423 24 -437 32 -6 4 -10 37 -10 74 0 81 -19 105 -90 115 -92 14
-101 17 -98 34 3 15 25 18 168 22 359 12 370 12 405 -10z m-640 -30 c28 -5 68
-13 90 -18 36 -9 33 -10 -40 -11 l-81 -1 3 -56 c1 -30 7 -62 14 -70 10 -12
-16 -14 -187 -14 -110 0 -215 3 -234 6 l-35 6 3 59 c2 35 8 59 15 60 32 3 -46
17 -97 18 -66 1 -68 11 -3 22 62 10 494 9 552 -1z m1865 -35 c0 -8 -4 -15 -10
-15 -5 0 -7 7 -4 15 4 8 8 15 10 15 2 0 4 -7 4 -15z m-1635 -173 c24 -9 13
-11 -60 -7 l-90 4 47 -21 c34 -15 48 -28 51 -47 3 -14 3 -28 1 -30 -13 -13
-298 -30 -524 -30 -256 -1 -362 6 -280 19 29 4 36 10 41 35 10 50 21 75 33 76
6 0 2 5 -9 10 -30 13 752 4 790 -9z m455 -52 c125 -19 174 -32 159 -41 -7 -4
-10 -11 -6 -15 11 -12 -13 -33 -30 -27 -13 5 -15 2 -10 -11 7 -17 1 -18 -100
-12 -139 9 -279 24 -323 34 l-34 8 42 12 c49 15 51 23 17 50 -14 11 -25 22
-25 24 0 6 233 -10 310 -22z m-1668 4 c-12 -8 -22 -22 -22 -30 0 -10 -14 -14
-52 -15 -73 -2 -186 -7 -227 -12 -21 -2 -35 1 -38 10 -3 8 -11 12 -18 9 -6 -2
-18 -1 -25 4 -25 15 184 46 335 49 66 1 68 0 47 -15z m2848 -98 c0 -24 3 -58
6 -75 9 -43 -20 -42 -46 2 -25 41 -25 47 1 42 15 -3 19 0 15 11 -7 19 3 64 15
64 5 0 9 -20 9 -44z m-3930 -1153 c0 -7 -4 -13 -9 -13 -5 0 -11 6 -14 13 -3 8
1 14 9 14 8 0 14 -6 14 -14z m136 -425 c0 -10 -1 -18 -3 -18 -1 0 -7 8 -12 18
-7 13 -6 19 2 19 7 0 13 -9 13 -19z"/>
<path d="M6278 9940 c-56 -43 -61 -130 -11 -176 31 -29 106 -33 142 -8 61 43
60 147 -2 184 -41 26 -97 26 -129 0z"/>
<path d="M5261 11487 c2 -1 13 -9 24 -17 19 -14 19 -14 6 3 -7 9 -18 17 -24
17 -6 0 -8 -1 -6 -3z"/>
<path d="M8450 11435 c25 -13 50 -24 55 -24 6 0 -10 11 -35 24 -25 13 -49 24
-55 24 -5 0 10 -11 35 -24z"/>
<path d="M8150 10505 c0 -8 4 -15 10 -15 5 0 7 7 4 15 -4 8 -8 15 -10 15 -2 0
-4 -7 -4 -15z"/>
<path d="M7983 9330 c0 -25 2 -35 4 -22 2 12 2 32 0 45 -2 12 -4 2 -4 -23z"/>
<path d="M3888 9089 c-43 -21 -78 -41 -78 -44 0 -5 159 72 169 81 14 13 -25
-2 -91 -37z"/>
<path d="M3579 8893 c-13 -16 -12 -17 4 -4 9 7 17 15 17 17 0 8 -8 3 -21 -13z"/>
<path d="M8680 8906 c0 -3 9 -10 20 -16 11 -6 20 -8 20 -6 0 3 -9 10 -20 16
-11 6 -20 8 -20 6z"/>
<path d="M8754 8856 c34 -29 40 -53 22 -82 -12 -17 -11 -26 4 -58 11 -25 20
-34 25 -26 14 22 28 -6 15 -30 -8 -15 -8 -20 -1 -16 6 4 11 0 11 -9 0 -9 4
-14 9 -11 11 7 23 -22 14 -36 -3 -7 -1 -8 5 -4 7 4 12 3 12 -3 0 -5 -5 -13
-10 -16 -6 -4 -9 -19 -8 -35 1 -16 5 -27 8 -25 3 1 12 -4 20 -13 13 -14 13
-15 -1 -10 -13 5 -15 -1 -9 -38 4 -24 3 -41 -1 -39 -4 3 -6 -6 -5 -20 0 -14 5
-25 10 -25 5 0 2 -8 -5 -17 -12 -15 -12 -16 5 -10 16 6 17 5 6 -8 -7 -8 -9
-15 -6 -15 4 0 0 -10 -8 -22 -11 -16 -13 -25 -4 -35 6 -8 7 -13 0 -13 -5 0
-12 -13 -14 -30 -3 -16 -1 -30 3 -30 4 0 5 -10 3 -22 -3 -13 -6 -29 -6 -35 -1
-7 -6 -13 -11 -13 -5 0 -3 -7 4 -17 11 -13 12 -17 1 -21 -10 -3 -8 -8 5 -18
14 -11 15 -13 2 -8 -24 8 -31 -22 -11 -42 19 -19 19 -23 3 -33 -6 -4 -12 -28
-13 -54 -2 -32 -7 -47 -17 -47 -10 0 -11 -3 -2 -14 8 -10 9 -16 1 -21 -5 -3
-10 -1 -10 6 0 7 -3 10 -6 7 -3 -4 2 -18 12 -32 16 -25 16 -28 -1 -46 -15 -17
-16 -22 -5 -36 12 -13 11 -17 -1 -25 -10 -6 -11 -9 -1 -9 7 0 11 -4 7 -9 -3
-5 3 -12 12 -14 10 -3 -16 -6 -57 -7 -41 -1 -68 -4 -60 -6 14 -3 792 -44 844
-44 l26 0 -20 20 c-17 17 -20 33 -20 98 0 131 -47 372 -99 504 -5 15 -23 34
-38 42 -15 8 -24 15 -20 16 13 0 -20 30 -33 30 -6 0 -8 5 -5 10 5 9 -23 15
-48 11 -11 -2 -37 25 -37 38 0 14 -13 14 -26 1 -7 -7 -28 15 -66 72 -99 149
-313 363 -353 352 -14 -4 -16 -2 -7 4 9 6 2 16 -30 36 -40 25 -41 26 -14 2z"/>
<path d="M3475 8798 l-60 -63 63 60 c58 55 67 65 59 65 -1 0 -29 -28 -62 -62z"/>
<path d="M9571 8194 c0 -11 3 -14 6 -6 3 7 2 16 -1 19 -3 4 -6 -2 -5 -13z"/>
<path d="M9581 8154 c0 -11 3 -14 6 -6 3 7 2 16 -1 19 -3 4 -6 -2 -5 -13z"/>
<path d="M9591 8114 c0 -11 3 -14 6 -6 3 7 2 16 -1 19 -3 4 -6 -2 -5 -13z"/>
<path d="M9601 8074 c0 -11 3 -14 6 -6 3 7 2 16 -1 19 -3 4 -6 -2 -5 -13z"/>
<path d="M9616 8000 c3 -30 10 -91 15 -135 5 -44 9 -117 9 -162 0 -78 1 -83
35 -123 19 -23 35 -38 35 -34 0 4 -11 19 -24 33 -22 24 -25 40 -36 186 -6 88
-18 189 -25 225 l-14 65 5 -55z"/>
<path d="M8793 7792 c1 -14 5 -18 11 -12 7 7 6 14 -1 21 -9 9 -12 7 -10 -9z"/>
<path d="M9583 7735 c0 -38 2 -53 4 -32 2 20 2 52 0 70 -2 17 -4 1 -4 -38z"/>
<path d="M3640 7623 c-69 -3 -166 -21 -205 -38 -16 -7 -84 -18 -149 -24 -133
-12 -156 -23 -156 -75 0 -42 9 -53 45 -59 26 -3 24 -4 -10 -6 -22 0 -72 -7
-112 -15 -40 -7 -75 -11 -78 -8 -3 3 -5 0 -5 -6 0 -6 14 -27 30 -45 l30 -35 0
-1953 c0 -1947 3 -2132 35 -2324 30 -177 105 -364 210 -525 64 -97 249 -283
348 -349 l77 -52 0 -375 c0 -421 -1 -416 73 -492 163 -168 695 -309 1437 -382
574 -56 1401 -64 2025 -19 848 60 1477 206 1678 389 93 85 92 78 94 509 l1
375 74 52 c333 235 528 587 562 1019 3 39 8 983 12 2100 l6 2029 28 33 c29 32
47 90 37 115 -3 7 -6 3 -6 -8 -2 -36 -23 -45 -87 -38 -33 4 -53 9 -46 12 16 5
15 72 -3 96 -8 10 -33 22 -57 27 -111 21 -624 37 -616 19 2 -3 -19 -26 -45
-51 l-47 -47 -243 -7 c-134 -4 -423 -4 -642 -1 -220 3 -1075 9 -1900 13 -825
3 -1489 10 -1475 14 24 7 24 7 3 8 -13 1 -25 0 -28 -1 -2 -2 -12 8 -21 20 -10
14 -23 22 -34 19 -9 -2 -22 4 -29 14 -6 11 -19 20 -29 20 -9 1 1 5 23 9 22 4
-147 9 -375 11 -228 2 -363 5 -298 6 92 3 117 7 122 19 6 15 -39 16 -254 7z
m4090 -244 c81 -1 129 -5 110 -8 -20 -4 52 -10 170 -14 345 -12 529 -23 563
-33 9 -3 17 -15 17 -26 0 -12 3 -19 6 -15 8 8 44 -25 38 -35 -3 -4 -2 -8 3 -8
8 0 19 -24 41 -89 7 -22 8 -40 2 -52 -13 -23 -13 -38 0 -19 7 11 9 8 8 -15 -1
-16 -5 -34 -8 -40 -4 -5 -10 -21 -13 -35 -6 -24 -5 -24 8 -6 14 18 15 16 15
-28 0 -26 4 -45 8 -42 10 6 8 -56 -2 -73 -4 -6 -2 -11 3 -11 6 0 11 -7 11 -15
0 -8 -4 -15 -10 -15 -5 0 -10 -7 -10 -15 0 -8 5 -15 10 -15 12 0 9 -22 -5 -32
-6 -5 -5 -8 3 -8 6 0 12 -7 12 -16 0 -8 -4 -12 -10 -9 -5 3 -10 -3 -10 -14 0
-12 6 -21 13 -21 7 0 8 -3 2 -8 -5 -4 -12 -18 -14 -32 -1 -14 -6 -27 -10 -30
-12 -9 -11 -30 1 -30 9 0 8 -4 -2 -10 -13 -9 -13 -10 0 -10 13 0 13 -1 0 -10
-9 -6 -11 -10 -3 -10 7 0 10 -7 6 -17 -4 -9 -2 -14 3 -10 6 4 9 -6 6 -24 -3
-18 0 -29 7 -29 9 0 9 -5 0 -21 -7 -13 -7 -19 -1 -15 6 4 10 -2 9 -14 -1 -11
-4 -20 -7 -20 -3 0 -6 -11 -6 -25 -1 -14 2 -22 7 -19 18 11 8 -8 -13 -28 -13
-11 -17 -16 -10 -13 8 4 13 2 11 -6 -3 -27 1 -50 9 -45 4 2 9 -4 9 -16 1 -13
-3 -18 -12 -14 -9 3 -12 0 -8 -10 3 -7 9 -14 14 -14 6 0 5 -10 -2 -21 -8 -15
-8 -19 0 -15 6 4 11 3 11 -3 0 -5 -5 -13 -10 -16 -7 -4 -7 -12 0 -25 6 -12 7
-21 0 -25 -6 -4 -6 -15 0 -31 13 -33 12 -43 -1 -24 -8 12 -10 9 -6 -13 2 -15
1 -30 -3 -32 -4 -3 -6 -21 -4 -40 2 -23 -1 -33 -7 -29 -7 4 -7 -1 0 -15 7 -12
8 -21 2 -21 -5 0 -9 -13 -9 -30 1 -16 5 -30 10 -30 5 0 6 -6 1 -12 -11 -19
-13 -39 -2 -32 5 3 9 1 9 -5 0 -5 -5 -11 -12 -13 -7 -3 -6 -12 6 -30 15 -23
15 -26 1 -31 -8 -4 -15 -11 -15 -17 0 -6 3 -9 8 -7 4 3 14 -2 22 -11 13 -14
12 -15 -2 -10 -10 4 -19 1 -22 -8 -9 -23 -7 -36 4 -29 14 9 13 -8 -2 -23 -13
-13 -12 -87 2 -111 5 -9 4 -23 -2 -34 -6 -13 -5 -23 4 -35 9 -11 10 -14 1 -8
-9 5 -13 -2 -14 -23 -1 -17 -2 -41 -2 -53 0 -13 -7 -26 -14 -31 -6 -4 -10 -14
-7 -22 4 -8 10 -12 15 -9 5 3 9 0 9 -5 0 -6 -4 -11 -10 -11 -5 0 -10 -7 -10
-16 0 -8 5 -12 10 -9 6 3 10 1 10 -4 0 -6 -5 -11 -12 -11 -6 0 -8 -3 -5 -7 4
-3 -1 -12 -11 -19 -16 -12 -16 -13 1 -26 17 -13 15 -48 -3 -48 -4 0 -6 -16 -4
-36 2 -24 -2 -37 -12 -41 -13 -5 -12 -8 2 -24 14 -15 15 -22 6 -31 -15 -15
-16 -32 -2 -23 6 3 7 -1 4 -9 -3 -9 -11 -13 -16 -10 -16 10 2 -40 20 -54 9 -6
11 -12 6 -12 -6 0 -15 5 -22 12 -9 9 -12 8 -12 -5 0 -9 6 -17 13 -17 7 0 8 -3
2 -8 -15 -11 -17 -32 -3 -32 9 0 9 -3 0 -12 -7 -7 -12 -21 -12 -33 0 -12 5
-26 12 -33 7 -7 8 -12 3 -12 -6 0 -11 -11 -11 -25 -1 -14 1 -25 5 -25 4 0 8
-7 8 -15 0 -8 -4 -15 -9 -15 -4 0 -8 -7 -8 -16 0 -8 -4 -12 -10 -9 -6 4 -10
-10 -10 -34 0 -55 1 -52 -23 -85 -12 -16 -16 -26 -9 -22 7 4 12 2 12 -3 0 -6
-4 -11 -9 -11 -5 0 -12 -7 -15 -16 -4 -9 -2 -13 5 -8 15 9 -5 -29 -27 -50 -8
-9 -11 -16 -5 -16 12 0 11 -21 -1 -30 -4 -3 -8 -27 -9 -53 -2 -26 -5 -47 -8
-47 -4 0 -12 -9 -18 -20 -11 -17 -10 -18 5 -13 16 6 16 5 0 -14 -19 -21 -24
-38 -9 -28 5 3 13 0 17 -6 4 -7 3 -9 -3 -6 -6 4 -16 0 -23 -8 -7 -8 -9 -15 -4
-15 4 0 3 -5 -4 -12 -8 -8 -8 -15 -1 -24 13 -16 3 -34 -19 -34 -13 0 -14 -2
-3 -9 9 -6 10 -11 2 -15 -6 -4 -11 -12 -11 -17 0 -6 5 -7 10 -4 6 3 10 1 10
-4 0 -6 -5 -11 -11 -11 -7 0 -9 -10 -7 -25 3 -14 2 -28 -3 -31 -4 -2 -5 -12
-2 -21 5 -12 2 -15 -10 -10 -14 5 -16 3 -8 -11 7 -13 5 -26 -9 -47 -10 -15
-16 -35 -12 -43 4 -11 2 -13 -9 -7 -11 7 -11 5 1 -10 11 -14 12 -17 1 -11 -9
6 -12 5 -9 -5 3 -8 -5 -30 -17 -49 -20 -32 -21 -37 -7 -50 11 -10 12 -15 4
-18 -7 -2 -10 -8 -7 -12 3 -5 -3 -7 -14 -5 -18 3 -19 1 -8 -17 9 -16 9 -22 0
-25 -8 -3 -13 -22 -13 -44 0 -21 -4 -39 -9 -39 -8 0 -15 -36 -24 -117 -1 -13
-6 -23 -10 -23 -5 0 -6 -4 -3 -9 4 -5 0 -11 -6 -14 -10 -3 -10 -9 -2 -23 8
-15 8 -22 -1 -31 -7 -7 -16 -9 -19 -6 -3 4 -6 1 -6 -5 0 -7 5 -12 12 -12 9 0
9 -3 0 -12 -7 -7 -12 -17 -12 -23 0 -5 4 -4 9 4 6 9 9 5 9 -14 0 -19 -3 -23
-9 -14 -7 11 -9 9 -10 -6 -1 -11 -1 -23 0 -27 0 -4 -5 -5 -13 -2 -8 3 -17 1
-21 -5 -3 -6 -1 -11 5 -11 7 0 8 -6 0 -19 -13 -25 -13 -41 0 -21 7 11 10 12
10 2 0 -8 -9 -16 -21 -19 -13 -4 -16 -8 -9 -13 7 -5 6 -11 -6 -21 -12 -9 -15
-10 -10 -1 4 6 3 12 -3 12 -5 0 -13 -5 -16 -10 -4 -6 -11 -8 -16 -4 -6 3 -13
-3 -16 -15 -3 -11 -8 -19 -12 -17 -4 3 -7 -4 -8 -15 -2 -21 -48 -71 -57 -62
-3 4 -6 -2 -6 -12 0 -10 -3 -16 -6 -12 -9 8 -76 -62 -69 -73 7 -11 -29 -32
-39 -23 -3 3 -6 -1 -6 -11 0 -9 -4 -14 -10 -11 -6 4 -7 -1 -3 -11 5 -13 2 -16
-8 -12 -8 3 -20 -1 -27 -8 -7 -8 -10 -14 -7 -14 3 0 -3 -8 -12 -18 -10 -11
-21 -17 -25 -15 -5 2 -8 -1 -8 -6 0 -6 -8 -11 -19 -11 -10 0 -30 -9 -45 -21
-15 -11 -33 -18 -41 -15 -8 3 -17 1 -20 -4 -3 -4 -16 -7 -30 -6 -13 2 -23 0
-20 -4 6 -10 -29 -37 -43 -32 -7 2 -12 -1 -12 -8 0 -6 -6 -10 -12 -9 -7 1 -24
1 -38 0 -20 -1 -22 -3 -10 -11 13 -8 12 -10 -2 -10 -10 0 -18 7 -18 16 0 8 -5
12 -10 9 -6 -4 -8 -11 -5 -16 4 -5 4 -9 1 -9 -2 0 -12 -3 -22 -7 -13 -5 -15
-3 -9 8 7 10 2 9 -17 -3 -14 -9 -29 -14 -33 -10 -8 9 -74 9 -69 1 5 -9 -26
-20 -37 -13 -5 3 -9 0 -9 -5 0 -6 -6 -11 -14 -11 -7 0 -19 -7 -26 -15 -9 -11
-17 -12 -32 -4 -15 8 -24 7 -37 -5 -21 -19 -41 -21 -41 -3 0 8 -3 8 -8 1 -4
-5 -43 -11 -87 -13 -43 -1 -90 -8 -104 -16 -15 -7 -34 -10 -46 -5 -75 27 -87
29 -102 15 -17 -17 -27 -20 -18 -5 3 6 -3 10 -14 10 -10 0 -21 -5 -23 -11 -3
-9 -10 -9 -27 1 -13 6 -21 8 -18 3 5 -7 -11 -8 -56 -4 -5 1 -6 5 -3 9 3 5 -10
8 -29 7 -21 -2 -35 2 -35 9 -1 6 -7 -2 -14 -19 -10 -25 -13 -26 -19 -12 -4 11
-3 16 3 12 6 -3 10 -2 10 3 0 6 -7 12 -15 16 -9 3 -15 0 -15 -8 0 -8 -13 -12
-35 -12 -19 1 -35 5 -35 10 0 5 -10 1 -22 -10 -12 -10 -18 -13 -14 -7 5 9 -1
12 -24 9 -17 -2 -33 1 -36 5 -3 5 -10 7 -15 4 -5 -4 -9 -2 -9 4 0 10 -25 9
-36 -2 -4 -3 -15 -2 -26 4 -10 5 -23 7 -28 4 -6 -3 -10 -2 -10 2 0 5 -18 8
-40 7 -22 0 -40 3 -40 8 0 5 -4 6 -10 3 -5 -3 -10 -1 -10 5 0 6 -5 8 -10 5 -6
-4 -17 -1 -25 5 -11 10 -15 10 -15 1 0 -7 -5 -9 -10 -6 -6 4 -8 11 -5 16 3 5
-2 6 -11 2 -11 -4 -15 -3 -10 5 4 7 -2 9 -19 6 -17 -3 -27 1 -32 12 -3 9 -13
14 -24 11 -11 -3 -19 -1 -19 5 0 5 -4 6 -10 3 -5 -3 -10 1 -10 10 0 9 -4 14
-9 10 -5 -3 -12 -1 -16 5 -4 7 -14 6 -28 -2 -19 -10 -20 -9 -9 4 10 13 10 17
-3 22 -11 4 -14 2 -9 -7 6 -8 3 -8 -9 1 -9 8 -21 11 -27 7 -5 -3 -10 -1 -10 5
0 7 -6 8 -18 1 -13 -7 -27 -6 -46 5 -16 8 -37 14 -47 14 -11 0 -19 4 -19 9 0
5 -7 12 -16 15 -12 4 -15 2 -10 -9 4 -12 2 -13 -14 -2 -11 6 -20 15 -20 20 0
4 -4 6 -9 3 -5 -3 -14 0 -20 7 -6 8 -21 13 -33 12 -13 -1 -30 8 -41 21 -10 13
-23 21 -30 18 -7 -2 -21 7 -31 21 -10 14 -22 25 -27 25 -4 0 -19 11 -33 25
-16 16 -31 23 -43 19 -12 -4 -14 -3 -6 3 15 11 4 28 -24 37 -15 5 -20 12 -16
23 4 11 2 14 -5 9 -7 -4 -12 -2 -12 4 0 6 -5 8 -12 4 -7 -4 -8 -3 -4 4 7 12
-73 96 -82 87 -7 -7 -32 15 -32 29 0 6 4 4 10 -4 5 -8 13 -11 17 -6 4 5 2 11
-6 14 -28 10 -65 53 -52 61 8 5 6 15 -9 34 -12 15 -19 31 -15 37 3 6 0 7 -9 4
-9 -3 -16 -10 -16 -16 0 -5 -5 -6 -11 -2 -6 3 -7 9 -3 13 5 3 14 13 21 21 10
13 9 16 -7 16 -10 0 -16 -5 -12 -11 3 -5 -1 -4 -10 2 -8 7 -17 10 -20 7 -3 -3
-9 0 -14 7 -5 8 -3 10 6 4 8 -5 11 -4 6 3 -4 6 -13 9 -21 5 -19 -7 -48 16 -41
33 3 7 -2 15 -10 18 -8 3 -12 1 -9 -4 3 -5 -1 -7 -9 -4 -19 7 -28 32 -14 40 7
5 8 2 3 -6 -5 -8 -4 -11 3 -6 6 4 9 13 5 21 -3 8 0 15 7 15 7 0 5 6 -4 16 -9
8 -13 20 -10 26 4 7 2 8 -5 4 -6 -4 -9 -11 -6 -16 3 -5 1 -11 -5 -15 -6 -4
-10 5 -10 19 0 14 -4 26 -10 26 -5 0 -14 10 -21 21 -7 13 -7 19 -1 15 6 -3 13
-2 17 4 3 5 2 10 -3 10 -5 0 -9 7 -9 15 0 8 4 15 9 15 5 0 4 9 -2 20 -8 15 -8
20 2 20 9 0 9 3 0 12 -15 15 -16 32 -2 23 6 -3 10 -1 10 4 0 15 -30 14 -30 -1
-1 -7 -7 -2 -14 12 -10 17 -11 30 -5 42 9 17 2 23 -23 19 -4 0 -5 6 -2 14 4 8
10 15 15 15 4 0 6 7 3 15 -4 8 -1 15 5 15 5 0 16 10 22 23 11 21 11 21 -7 6
-20 -17 -44 -15 -44 3 0 6 6 8 14 5 9 -4 13 2 12 16 -1 12 2 27 6 33 5 8 4 12
-4 11 -7 0 -22 1 -33 2 -17 1 -18 3 -5 11 10 6 11 10 3 10 -7 0 -13 7 -13 16
0 8 -4 13 -8 10 -5 -3 -9 1 -9 9 0 18 9 19 27 3 8 -7 6 -3 -4 10 -19 22 -19
22 0 44 10 12 14 18 8 15 -7 -4 -18 1 -25 10 -12 14 -12 16 1 8 12 -7 13 -6 4
6 -6 8 -10 24 -8 37 2 14 -2 25 -11 28 -8 4 -12 10 -9 15 3 5 1 9 -5 9 -5 0
-12 -6 -14 -12 -3 -7 -4 1 -3 17 2 17 -1 37 -5 45 -5 11 -2 16 12 17 11 1 17
-2 14 -8 -10 -15 2 -10 16 8 8 10 9 14 2 10 -6 -4 -14 -3 -18 3 -3 5 -1 10 6
10 7 0 2 9 -11 20 -12 11 -26 18 -30 15 -3 -2 -7 2 -7 10 0 12 5 12 29 -1 16
-8 28 -10 28 -4 0 5 -4 10 -10 10 -5 0 -10 8 -10 18 0 14 2 15 10 2 5 -8 10
-10 10 -5 -1 6 -8 19 -17 30 -12 16 -14 16 -10 3 3 -10 2 -20 -4 -23 -5 -4 -9
-3 -8 2 1 4 1 16 0 26 -1 17 -2 17 -17 3 -20 -20 -30 -20 -38 0 -4 10 -2 13 6
8 8 -5 9 -2 4 11 -5 15 -4 16 8 6 13 -11 15 -9 11 8 -2 12 -6 25 -9 30 -4 5
-1 11 5 13 15 5 -11 48 -29 48 -9 0 -10 5 -4 18 5 9 8 27 7 40 -1 13 2 25 7
28 4 3 6 10 3 15 -11 17 -14 49 -4 49 6 0 5 8 -1 21 -7 11 -9 27 -6 34 3 8 -1
21 -9 29 -18 18 -19 36 -2 36 8 0 8 3 2 8 -16 11 -15 75 1 93 12 13 12 18 -1
35 -18 24 -19 61 -2 67 7 3 6 6 -5 6 -9 1 -20 6 -24 13 -5 7 -3 8 7 3 12 -7
12 -6 0 9 -13 15 -13 19 0 27 8 5 9 9 3 9 -6 0 -10 10 -9 23 0 12 -6 34 -14
49 -12 22 -13 30 -3 40 15 15 16 28 1 28 -5 0 -7 -6 -3 -12 5 -9 3 -9 -7 0
-12 11 -11 16 6 29 14 11 16 17 8 20 -7 3 -13 14 -13 24 0 14 -4 18 -12 13 -8
-5 -7 0 2 11 14 16 13 17 -6 11 -14 -4 -21 -2 -21 8 0 9 4 13 9 10 4 -3 8 0 8
7 0 6 -8 9 -17 7 -13 -4 -18 2 -19 18 -2 20 0 21 13 9 23 -23 37 -18 20 8 -8
12 -20 21 -26 20 -5 -2 -9 6 -8 17 1 10 6 18 11 17 6 -1 9 11 8 27 -3 18 0 26
7 22 6 -4 11 0 11 11 -1 16 -3 15 -20 -6 l-20 -23 0 23 c0 12 3 19 7 16 10
-11 32 26 32 53 0 23 -1 23 -8 5 -5 -11 -6 -24 -3 -29 2 -5 -1 -6 -9 -4 -8 3
-14 16 -14 29 0 14 -5 23 -12 21 -7 -1 -13 7 -13 19 0 11 5 17 10 14 6 -3 10
-1 10 5 0 7 -9 14 -20 17 -23 6 -26 24 -8 53 10 16 10 24 1 39 -11 17 -10 19
8 16 17 -3 19 -2 9 10 -13 15 -4 39 11 30 5 -4 9 4 10 17 1 14 8 3 20 -32 10
-30 16 -44 13 -30 -3 14 -8 88 -11 164 -6 145 1 197 38 313 21 63 21 63 1 88
-14 18 -22 22 -26 13 -4 -7 -4 -3 -2 10 4 21 -7 31 -17 15 -2 -5 -3 -3 -1 3 1
6 -3 18 -9 25 -8 8 -5 8 7 -1 15 -11 18 -12 12 -2 -5 8 -10 32 -12 54 -4 34
-2 39 10 29 9 -8 16 -8 20 -2 4 6 -3 15 -14 21 -11 6 -20 16 -20 23 0 7 4 6
10 -3 9 -13 14 -8 11 12 0 4 8 5 18 3 25 -5 32 15 16 45 -11 21 -10 26 9 43
11 10 15 16 9 12 -8 -4 -13 1 -13 12 0 11 -3 14 -8 7 -5 -9 -10 -9 -17 0 -13
15 -19 50 -7 42 6 -3 13 1 16 10 4 11 2 15 -8 11 -10 -4 -13 1 -11 19 1 14 -3
31 -9 37 -7 7 -12 22 -12 34 0 15 4 19 10 13 6 -6 14 -10 19 -10 5 0 2 7 -7
15 -8 8 -21 15 -29 15 -16 0 -19 32 -3 43 8 5 6 10 -4 18 -12 9 -12 10 5 6 18
-3 20 1 19 52 -2 77 -2 78 -20 95 -8 9 -11 16 -5 16 6 0 10 3 9 8 -2 4 2 9 7
10 6 2 18 8 27 13 25 14 32 -8 13 -39 -9 -15 1 -7 22 17 31 35 38 50 35 74 -3
20 -7 25 -13 16 -6 -10 -8 -7 -6 8 0 12 5 19 9 17 4 -3 8 4 8 16 0 13 -4 19
-12 14 -7 -4 -8 -3 -4 4 4 6 13 9 20 6 7 -3 16 2 19 10 4 9 1 15 -5 13 -6 -1
-12 3 -15 9 -2 7 5 10 21 7 21 -4 24 -2 19 16 -3 11 -9 18 -14 15 -5 -3 -9 2
-9 10 0 9 6 15 13 13 7 -1 11 7 10 18 -1 13 9 28 27 40 16 11 26 23 23 29 -3
5 -12 1 -20 -9 -7 -11 -13 -14 -13 -8 0 14 25 34 33 26 4 -3 7 -1 7 4 0 6 -6
14 -12 16 -7 3 0 6 16 6 16 1 26 4 23 8 -11 11 13 32 30 26 8 -3 18 -1 22 5 7
12 443 32 714 32 97 0 177 3 177 8 0 4 102 9 227 10 125 2 230 5 233 9 4 4
652 1 1520 -8z m-4630 -59 c-10 -7 -11 -10 -2 -11 6 -1 17 -3 22 -4 6 -1 19
-3 30 -4 l21 -1 -2 -1767 c0 -973 -4 -1772 -7 -1777 -17 -28 -27 -415 -16
-636 3 -74 6 -162 5 -195 -1 -38 6 -82 19 -119 22 -65 25 -78 10 -56 -34 53
-101 282 -121 415 -10 60 -14 584 -16 2123 l-4 2042 38 0 c28 0 34 -3 23 -10z
m6479 -1342 c0 -711 -2 -1315 -3 -1343 -2 -27 -3 -113 -4 -189 -1 -77 -5 -137
-8 -133 -3 3 -8 209 -10 459 -2 249 -7 613 -10 808 -14 712 -7 1681 12 1711 5
8 10 7 15 -4 5 -9 9 -590 8 -1309z m60 570 c0 -381 -2 -688 -5 -683 -2 6 -5
120 -8 255 -2 135 -6 259 -8 277 -3 18 -2 30 2 28 4 -2 7 10 8 27 0 21 -2 28
-8 19 -16 -28 -23 246 -12 564 0 11 0 50 -1 86 -1 41 4 76 12 93 8 14 16 26
18 26 2 0 3 -312 2 -692z m-5012 450 c-3 -8 -6 -5 -6 6 -1 11 2 17 5 13 3 -3
4 -12 1 -19z m4088 -697 c3 -5 0 -13 -6 -17 -8 -4 -7 -9 2 -15 10 -6 10 -9 2
-9 -17 0 -25 17 -12 26 8 4 7 9 -2 15 -10 6 -10 9 -2 9 6 0 14 -4 18 -9z
m-4135 -366 c0 -8 -2 -15 -4 -15 -2 0 -6 7 -10 15 -3 8 -1 15 4 15 6 0 10 -7
10 -15z m0 -34 c0 -6 -4 -13 -10 -16 -5 -3 -10 1 -10 9 0 9 5 16 10 16 6 0 10
-4 10 -9z m5058 -368 c-1 -175 -4 -284 -7 -243 -4 41 -9 66 -12 55 -3 -11 -5
7 -4 41 1 33 5 66 9 72 4 6 2 21 -5 33 -9 17 -8 20 3 13 9 -6 9 -3 -2 11 -11
14 -12 19 -2 22 9 4 12 44 12 159 0 85 2 154 5 154 3 0 4 -143 3 -317z m-5063
217 c3 -5 -1 -10 -10 -10 -9 0 -13 5 -10 10 3 6 8 10 10 10 2 0 7 -4 10 -10z
m2 -42 c-3 -8 -6 -5 -6 6 -1 11 2 17 5 13 3 -3 4 -12 1 -19z m5060 -520 c-3
-8 -6 -5 -6 6 -1 11 2 17 5 13 3 -3 4 -12 1 -19z m0 -80 c-2 -13 -4 -5 -4 17
-1 22 1 32 4 23 2 -10 2 -28 0 -40z m0 -205 c-2 -32 -3 -6 -3 57 0 63 1 89 3
58 2 -32 2 -84 0 -115z m0 -85 c-3 -8 -6 -5 -6 6 -1 11 2 17 5 13 3 -3 4 -12
1 -19z m-4978 -31 c1 -5 -3 -5 -9 -2 -5 3 -10 16 -9 28 0 21 1 21 9 2 5 -11 9
-24 9 -28z m121 -731 c0 -3 -4 -8 -10 -11 -5 -3 -10 -1 -10 4 0 6 5 11 10 11
6 0 10 -2 10 -4z m3621 -219 c-10 -9 -11 -8 -5 6 3 10 9 15 12 12 3 -3 0 -11
-7 -18z m-3571 -20 c10 -4 8 -6 -6 -6 -12 -1 -25 6 -28 15 -5 13 -3 14 6 7 7
-6 20 -13 28 -16z m-6 -146 c3 -5 0 -13 -7 -19 -10 -8 -13 -6 -13 9 0 20 11
25 20 10z m41 -81 c3 -5 1 -10 -4 -10 -6 0 -11 5 -11 10 0 6 2 10 4 10 3 0 8
-4 11 -10z m3515 -2040 c-14 -52 -73 -118 -125 -141 -44 -19 -192 -49 -420
-84 -118 -19 -133 -22 -69 -18 69 5 82 3 87 -11 5 -14 3 -15 -13 -6 -21 11
-40 13 -25 2 6 -4 19 -18 30 -31 l20 -24 -22 7 c-27 9 -29 3 -6 -19 12 -13 13
-19 4 -25 -16 -10 -16 -21 1 -31 9 -6 10 -9 1 -9 -7 0 -10 -7 -7 -17 5 -17 5
-17 -9 -1 -8 10 -16 18 -19 18 -6 0 -3 -40 6 -67 3 -10 1 -25 -4 -33 -8 -12
-10 -9 -10 13 0 15 -5 27 -11 27 -6 0 -8 -7 -5 -16 3 -8 2 -12 -4 -9 -13 8
-13 -8 0 -21 8 -8 6 -15 -6 -25 -12 -9 -15 -10 -10 -1 8 14 5 15 -18 6 -33
-13 -17 -32 22 -27 20 3 34 2 31 -1 -10 -10 -275 -43 -484 -60 -292 -24 -624
-37 -905 -34 -277 3 -545 12 -465 17 l50 3 -44 14 c-24 7 -48 11 -53 8 -4 -3
-8 -2 -7 3 3 19 -2 43 -8 42 -18 -3 -73 26 -73 39 0 7 4 11 9 8 5 -3 11 1 14
9 4 10 1 12 -10 8 -10 -4 -14 -2 -10 4 4 6 2 24 -3 39 -9 24 -9 25 5 14 9 -8
15 -8 15 -2 0 6 -4 14 -10 17 -5 3 -10 14 -10 23 0 14 4 13 18 -5 l17 -23 2
27 c0 16 -2 21 -7 13 -10 -16 -24 5 -14 23 4 6 -3 3 -16 -8 -13 -11 -20 -14
-16 -7 5 8 1 21 -8 31 -14 15 -14 18 -1 18 8 0 15 -4 15 -9 0 -5 7 -3 15 6 18
18 20 30 3 20 -9 -6 -9 -3 0 9 8 9 10 22 6 28 -4 7 -3 9 4 5 6 -3 14 -2 17 4
4 6 3 10 -2 9 -4 -1 -15 -1 -23 0 -12 1 -13 3 -1 10 11 7 10 13 -3 34 -10 15
-13 28 -7 31 5 3 11 1 13 -6 3 -7 7 -5 11 6 4 9 3 15 -2 11 -5 -3 -12 4 -16
15 -4 11 -11 18 -16 15 -5 -4 -9 -1 -9 4 0 6 13 11 28 11 21 0 32 7 40 26 7
14 17 22 22 19 6 -4 34 2 63 11 28 10 63 19 77 20 14 0 36 5 50 9 62 21 231
33 615 45 193 6 410 14 483 17 l132 6 0 -39 c1 -85 81 -186 159 -199 93 -16
728 72 803 111 32 16 85 85 94 121 4 12 10 20 15 17 5 -3 9 1 10 8 0 9 2 9 5
1 3 -6 0 -30 -6 -53z m-3996 -58 c17 -19 39 -38 49 -44 47 -25 608 -108 733
-108 65 0 92 10 139 52 l38 33 -17 -33 c-21 -40 -79 -79 -131 -87 -108 -17
-687 75 -791 126 -49 23 -101 96 -90 126 6 14 9 13 23 -8 9 -13 30 -39 47 -57z
m3326 -101 c-74 -11 -115 -20 -100 -23 16 -3 9 -5 -20 -5 -49 -1 -120 13 -85
16 11 1 72 8 135 15 166 19 217 16 70 -3z m-1850 -403 c0 -13 -23 -5 -28 10
-2 7 2 10 12 6 9 -3 16 -11 16 -16z"/>
<path d="M4963 7089 c-128 -21 -255 -101 -324 -203 -47 -70 -51 -115 -14 -151
32 -33 53 -31 105 6 73 53 139 78 242 91 85 10 106 10 170 -5 94 -22 101 -22
137 9 27 22 31 33 31 72 0 86 -60 147 -175 177 -65 16 -93 17 -172 4z m247
-74 c16 -19 1 -19 -24 0 -16 12 -17 15 -4 15 8 0 21 -7 28 -15z"/>
<path d="M7521 7079 c-90 -27 -151 -99 -151 -176 1 -80 49 -103 152 -72 126
39 278 12 398 -68 73 -50 86 -55 115 -41 32 14 46 57 34 102 -22 81 -144 193
-256 237 -66 25 -233 36 -292 18z m82 -36 c-7 -2 -21 -2 -30 0 -10 3 -4 5 12
5 17 0 24 -2 18 -5z"/>
<path d="M4764 7034 c-18 -14 -18 -15 4 -4 12 6 22 13 22 15 0 8 -5 6 -26 -11z"/>
<path d="M4704 6988 l-19 -23 23 19 c21 18 27 26 19 26 -2 0 -12 -10 -23 -22z"/>
<path d="M4715 6714 c-12 -9 -34 -14 -52 -12 -17 2 -29 0 -27 -4 10 -15 62 -8
85 12 28 23 23 26 -6 4z"/>
<path d="M4949 6426 c-112 -30 -208 -119 -270 -251 -41 -88 -44 -103 -55 -305
-12 -218 38 -381 152 -501 96 -100 210 -142 329 -120 85 16 142 47 207 113
139 141 192 395 137 661 -60 293 -273 465 -500 403z m269 -205 c62 -43 92
-164 58 -229 -27 -53 -64 -77 -114 -77 -59 0 -107 32 -133 89 -36 80 -20 169
42 220 28 24 40 27 75 23 23 -2 56 -14 72 -26z"/>
<path d="M7570 6430 c-119 -25 -216 -108 -282 -241 -55 -113 -69 -176 -75
-340 -5 -125 -3 -157 15 -226 31 -123 67 -189 141 -264 89 -89 150 -112 276
-107 79 3 98 8 153 38 112 60 191 173 232 336 26 99 28 348 5 438 -21 79 -78
186 -132 247 -82 90 -224 141 -333 119z m198 -194 c44 -23 74 -62 88 -115 24
-93 -17 -178 -97 -203 -103 -30 -207 110 -169 228 28 88 106 127 178 90z"/>
<path d="M4665 6199 c-9 -17 -15 -33 -13 -35 3 -2 12 12 21 31 21 43 13 47 -8
4z"/>
<path d="M4560 5640 c-13 -8 -12 -10 3 -10 9 0 17 5 17 10 0 12 -1 12 -20 0z"/>
<path d="M4689 5393 c5 -10 22 -29 37 -43 24 -22 23 -20 -6 18 -35 44 -47 54
-31 25z"/>
<path d="M4585 5280 c3 -5 8 -10 11 -10 2 0 4 5 4 10 0 6 -5 10 -11 10 -5 0
-7 -4 -4 -10z"/>
<path d="M4830 5255 c0 -7 61 -37 66 -33 2 3 -12 12 -31 21 -19 9 -35 15 -35
12z"/>
<path d="M8637 5143 c-4 -3 -7 -11 -7 -17 0 -6 5 -5 12 2 6 6 9 14 7 17 -3 3
-9 2 -12 -2z"/>
<path d="M5412 5007 c-47 -27 -70 -92 -49 -139 20 -46 167 -198 251 -260 195
-145 440 -220 716 -221 370 0 681 132 912 388 95 105 101 120 72 181 -19 40
-59 64 -104 64 -45 0 -65 -14 -105 -74 -73 -110 -279 -239 -459 -285 -188 -49
-416 -50 -604 -1 -215 54 -421 186 -477 303 -25 53 -98 74 -153 44z"/>
<path d="M4697 4429 c7 -7 15 -10 18 -7 3 3 -2 9 -12 12 -14 6 -15 5 -6 -5z"/>
<path d="M4862 3667 c-6 -7 -7 -18 -3 -26 6 -9 11 -10 15 -2 4 6 2 11 -5 11
-8 0 -8 4 1 15 7 8 10 15 7 15 -2 0 -9 -6 -15 -13z"/>
<path d="M4890 3482 c0 -5 7 -9 15 -9 8 0 15 4 15 9 0 4 -7 8 -15 8 -8 0 -15
-4 -15 -8z"/>
<path d="M6386 2548 c3 -5 10 -6 15 -3 13 9 11 12 -6 12 -8 0 -12 -4 -9 -9z"/>
<path d="M6920 2540 c0 -5 5 -10 11 -10 5 0 7 5 4 10 -3 6 -8 10 -11 10 -2 0
-4 -4 -4 -10z"/>
<path d="M7618 1293 c6 -2 18 -2 25 0 6 3 1 5 -13 5 -14 0 -19 -2 -12 -5z"/>
<path d="M2999 7573 c-13 -16 -12 -17 4 -4 16 13 21 21 13 21 -2 0 -10 -8 -17
-17z"/>
</g>
</svg>
